<svg xmlns="http://www.w3.org/2000/svg" viewBox="0 0 495 43.8"><style>.a{fill:#EEE;}</style><path d="M37.7 38l-16.4-9L4.8 38V5.1h32.9V38zM6.5 6.8v28.4l14.8-8.1 14.8 8.1V6.8H6.5z" class="a"/><path d="M74.2 38H42.4V5.1h31.7L74.2 38zM72.5 25.3h-5.9V23.7h5.9v-4.2h-5.9v-1.6h5.9V6.8H44.1v29.5h28.3V25.3z" class="a"/><path d="M91.1 5.1c1.6 0 3.1 0.2 4 0.6 2.9 1.2 4.9 4 4.9 7.3 3.8 2.4 6.3 6.6 6.3 11.4 0 5.6-3.5 10.5-8.4 12.5 -1.6 0.6-4 1-6.8 1h-15.6V5.1H91.1zM77.1 36.3h14c2.5 0 4.8-0.3 6.2-0.8 2.2-0.9 4-2.4 5.3-4.3 1.4-2 2.1-4.3 2.1-6.7 0-2-0.5-4-1.5-5.8 -0.9-1.7-2.3-3.1-4-4.2l-0.8-0.5v-0.9c0-1.3-0.4-2.5-1.1-3.5 -0.7-1-1.6-1.8-2.8-2.3 -0.7-0.3-2-0.5-3.4-0.5H77.1V36.3z" class="a"/><path d="M141.8 21.6c0 9.1-7.4 16.4-16.4 16.4s-16.4-7.4-16.4-16.4h8.5V5.1h24.4V21.6zM119.1 6.8v16.4h-8.4c0.4 3.3 1.8 6.3 4.2 8.7 2.8 2.8 6.5 4.3 10.4 4.3s7.7-1.5 10.4-4.3c2.8-2.8 4.3-6.5 4.3-10.4V6.8H119.1z" class="a"/><path d="M177.8 38H146.1V5.1h31.7L177.8 38zM176.1 25.3h-5.9V23.7h5.9v-4.2h-5.9v-1.6h5.9V6.8h-28.3v29.5h28.3V25.3z" class="a"/><path d="M215.4 21.6c0 9.1-7.4 16.4-16.4 16.4h-16.4V5.1h16.4C208.1 5.1 215.4 12.5 215.4 21.6zM184.2 6.8v29.5h14.8c3.9 0 7.7-1.5 10.4-4.3 2.8-2.8 4.3-6.5 4.3-10.4 0-3.9-1.5-7.7-4.3-10.4 -2.8-2.8-6.5-4.3-10.4-4.3H184.2z" class="a"/><path d="M217.8 38l18-32.9 18.1 32.9H217.8zM220.7 36.3h30.5L235.9 8.6 220.7 36.3z" class="a"/><path d="M312.2 18.4c0 5.4-3.1 10-7.8 12.1v7.5h-23.7V5.1c0 0 17.4 0 18.2 0C306.3 5.1 312.2 11.1 312.2 18.4zM282.5 6.8v29.5h20.4v-5.8 -1.1l0.9-0.5c2-0.9 3.7-2.3 4.9-4.2 1.3-1.9 1.9-4.1 1.9-6.3 0-3.1-1.2-6-3.4-8.2 -2.2-2.2-5.1-3.4-8.2-3.4H282.5z" class="a"/><path d="M315.7 5.1h32.9v16.4c0 9.1-7.4 16.4-16.4 16.4s-16.4-7.4-16.4-16.4V5.1zM346.9 6.8h-13.9v5.9h-1.7V6.8h-13.9v14.8c0 3.9 1.5 7.7 4.3 10.4 2.8 2.8 6.5 4.3 10.4 4.3 3.9 0 7.7-1.5 10.4-4.3 2.8-2.8 4.3-6.5 4.3-10.4V6.8z" class="a"/><path d="M383.9 18.4c0 5.4-3.2 10-7.8 12.1l5 7.5h-28.2V5.1h17.8C378 5.1 383.9 11.1 383.9 18.4zM354.6 6.8v29.5h23.4l-4.3-6.5 1.8-0.8c2-0.9 3.7-2.4 4.9-4.2 1.3-1.9 1.9-4.1 1.9-6.3 0-3.1-1.2-6-3.4-8.2 -2.2-2.2-5.1-3.4-8.2-3.4H354.6z" class="a"/><path d="M418.9 18.4c0 5.4-3.1 10-7.8 12.1v7.5h-23.7V5.1c0 0 17.4 0 18.2 0C413 5.1 418.9 11.1 418.9 18.4zM389.1 6.8v29.5h20.4v-5.8 -1.1l0.9-0.5c2-0.9 3.7-2.3 4.9-4.2 1.3-1.9 1.9-4.1 1.9-6.3 0-3.1-1.2-6-3.4-8.2 -2.2-2.2-5.1-3.4-8.2-3.4H389.1z" class="a"/><path d="M447.1 21.6h8.5v16.4H422.8V5.1h24.4V21.6zM424.4 6.8v29.5h29.5V23.3h-8.5V6.8H424.4z" class="a"/><path d="M491.3 38h-31.7V5.1h31.7L491.3 38zM489.6 25.3h-5.9V23.7h5.9v-4.2h-5.9v-1.6h5.9V6.8H461.3v29.5h28.3V25.3z" class="a"/></svg>